<svg xmlns="http://www.w3.org/2000/svg" version="1.1" xmlns:xlink="http://www.w3.org/1999/xlink" xmlns:svgjs="http://svgjs.dev/svgjs" width="2000" height="717" viewBox="0 0 2000 717"><g transform="matrix(1,0,0,1,-1.2121212121212466,-0.2370551024369547)"><svg viewBox="0 0 396 142" data-background-color="#ffffff" preserveAspectRatio="xMidYMid meet" height="717" width="2000" xmlns="http://www.w3.org/2000/svg" xmlns:xlink="http://www.w3.org/1999/xlink"><g id="tight-bounds" transform="matrix(1,0,0,1,0.2400000000000091,0.04694815138918784)"><svg viewBox="0 0 395.52 141.9061036972216" height="141.9061036972216" width="395.52"><g><svg viewBox="0 0 395.52 141.9061036972216" height="141.9061036972216" width="395.52"><g><svg viewBox="0 0 395.52 141.9061036972216" height="141.9061036972216" width="395.52"><g id="textblocktransform"><svg viewBox="0 0 395.52 141.9061036972216" height="141.9061036972216" width="395.52" id="textblock"><g><svg viewBox="0 0 395.52 141.9061036972216" height="141.9061036972216" width="395.52"><g transform="matrix(1,0,0,1,0,0)"><svg width="395.52" viewBox="77.72 -37.49999999999999 228.54999999999993 79" height="141.9061036972216" data-palette-color="#e9dfce"><svg></svg><svg></svg><g class="wordmark-text-0" data-fill-palette-color="primary" id="text-0"><path d="M90.77 0h-13.05v-0.8l4.05-2v-27.4l-4.05-2v-0.8h13.9c3.5 0 6.26 0.723 8.28 2.17 2.013 1.453 3.02 3.447 3.02 5.98v0c0 1.867-0.633 3.517-1.9 4.95-1.267 1.433-2.933 2.533-5 3.3v0l9.45 13.95 3.35 1.85v0.8h-8.05l-9.6-15.2h-4.15v12.35l3.75 2.05zM89.97-30.25v0h-2.95v12.4h3.25c2.067 0 3.777-0.593 5.13-1.78 1.347-1.18 2.02-2.687 2.02-4.52v0c0-1.9-0.657-3.393-1.97-4.48-1.32-1.08-3.147-1.62-5.48-1.62zM119.72 0.5v0c-1.967 0-3.573-0.5-4.82-1.5-1.253-1-1.88-2.467-1.88-4.4v0-14.8l-3.2-1.55v-0.8h7.9v14.85c0 1.4 0.427 2.467 1.28 3.2 0.847 0.733 1.953 1.1 3.32 1.1v0c0.833 0 1.75-0.143 2.75-0.43 1-0.28 1.8-0.703 2.4-1.27v0-15.1l-3.4-1.55v-0.8h8.15v20.3l3.45 1.45v0.8h-8.2v-3.15h-0.25c-1.233 1.233-2.433 2.15-3.6 2.75-1.167 0.6-2.467 0.9-3.9 0.9zM147.57 0.5v0c-1.6 0-2.977-0.14-4.13-0.42-1.147-0.287-2.303-0.73-3.47-1.33v0-5.6h0.75l1.6 2.7c1.1 1.833 2.8 2.75 5.1 2.75v0c1.333 0 2.36-0.3 3.08-0.9 0.713-0.6 1.07-1.433 1.07-2.5v0c0-0.867-0.227-1.567-0.68-2.1-0.447-0.533-1.097-1-1.95-1.4-0.847-0.4-1.87-0.883-3.07-1.45v0c-1.733-0.767-3.06-1.617-3.98-2.55-0.913-0.933-1.37-2.217-1.37-3.85v0c0-1.3 0.36-2.467 1.08-3.5 0.713-1.033 1.637-1.86 2.77-2.48 1.133-0.613 2.333-0.92 3.6-0.92v0c1.2 0 2.333 0.14 3.4 0.42 1.067 0.287 2.117 0.697 3.15 1.23v0 5.55h-0.7l-1.65-2.6c-1.1-1.733-2.45-2.6-4.05-2.6v0c-1.1 0-1.983 0.273-2.65 0.82-0.667 0.553-1 1.313-1 2.28v0c0 1.067 0.39 1.89 1.17 2.47 0.787 0.587 2.013 1.247 3.68 1.98v0c0.967 0.433 1.917 0.89 2.85 1.37 0.933 0.487 1.71 1.153 2.33 2 0.613 0.853 0.92 2.063 0.92 3.63v0c0 1.533-0.41 2.817-1.23 3.85-0.813 1.033-1.82 1.817-3.02 2.35-1.2 0.533-2.4 0.8-3.6 0.8zM172.02 0h-11.2v-0.8l3.2-1.6v-29.4l-3.05-2.55v-0.4l7.4-2.75h0.35v18.15h0.2c1.267-1.233 2.483-2.16 3.65-2.78 1.167-0.613 2.483-0.92 3.95-0.92v0c1.933 0 3.543 0.49 4.83 1.47 1.28 0.987 1.92 2.463 1.92 4.43v0 14.75l3.15 1.6v0.8h-11.2v-0.8l3.3-1.45v-12.6c0-1.433-0.433-2.507-1.3-3.22-0.867-0.72-1.983-1.08-3.35-1.08v0c-0.833 0-1.75 0.133-2.75 0.4-1 0.267-1.8 0.683-2.4 1.25v0 15.25l3.3 1.45zM195.97-28.85v0c-0.9 0-1.65-0.3-2.25-0.9-0.6-0.6-0.9-1.35-0.9-2.25v0c0-0.933 0.3-1.69 0.9-2.27 0.6-0.587 1.35-0.88 2.25-0.88v0c0.9 0 1.65 0.293 2.25 0.88 0.6 0.58 0.9 1.337 0.9 2.27v0c0 0.9-0.3 1.65-0.9 2.25-0.6 0.6-1.35 0.9-2.25 0.9zM201.57 0h-11v-0.8l3.2-1.6v-14.95l-3.05-2.55v-0.4l7.4-2.75h0.35v20.65l3.1 1.6zM217.62 0h-11.4v-0.8l3.2-1.6v-29.4l-3.05-2.55v-0.4l7.4-2.75h0.35v24.65l7.95-6.8v-0.3l-2.45-1.8v-0.8h9.75v0.8l-3.2 1.75-7.95 6.1 9.9 11.4 3.2 1.7v0.8h-7.35l-1.8-2.6-8.05-9.4v9.75l3.5 1.45zM245.42 0.5v0c-3.267 0-5.85-0.983-7.75-2.95-1.9-1.967-2.85-4.583-2.85-7.85v0c0-2.467 0.51-4.667 1.53-6.6 1.013-1.933 2.363-3.443 4.05-4.53 1.68-1.08 3.503-1.62 5.47-1.62v0c2.667 0 4.75 0.907 6.25 2.72 1.5 1.82 2.267 4.43 2.3 7.83v0l-0.25 0.25h-14.75c0.033 1.533 0.323 2.95 0.87 4.25 0.553 1.3 1.437 2.35 2.65 3.15 1.22 0.8 2.863 1.2 4.93 1.2v0c1.9 0 4.05-0.633 6.45-1.9v0h0.15v0.6c-0.8 1.533-1.983 2.827-3.55 3.88-1.567 1.047-3.4 1.57-5.5 1.57zM244.97-20.85v0c-1.467 0-2.673 0.55-3.62 1.65-0.953 1.1-1.563 2.65-1.83 4.65v0h10.65c-0.333-2.267-0.933-3.883-1.8-4.85-0.867-0.967-2-1.45-3.4-1.45zM267.42 0.5v0c-1.6 0-2.977-0.14-4.13-0.42-1.147-0.287-2.303-0.73-3.47-1.33v0-5.6h0.75l1.6 2.7c1.1 1.833 2.8 2.75 5.1 2.75v0c1.333 0 2.36-0.3 3.08-0.9 0.713-0.6 1.07-1.433 1.07-2.5v0c0-0.867-0.223-1.567-0.67-2.1-0.453-0.533-1.107-1-1.96-1.4-0.847-0.4-1.87-0.883-3.07-1.45v0c-1.733-0.767-3.057-1.617-3.97-2.55-0.92-0.933-1.38-2.217-1.38-3.85v0c0-1.3 0.357-2.467 1.07-3.5 0.72-1.033 1.647-1.86 2.78-2.48 1.133-0.613 2.333-0.92 3.6-0.92v0c1.2 0 2.333 0.14 3.4 0.42 1.067 0.287 2.117 0.697 3.15 1.23v0 5.55h-0.7l-1.65-2.6c-1.1-1.733-2.45-2.6-4.05-2.6v0c-1.1 0-1.983 0.273-2.65 0.82-0.667 0.553-1 1.313-1 2.28v0c0 1.067 0.393 1.89 1.18 2.47 0.78 0.587 2.003 1.247 3.67 1.98v0c0.967 0.433 1.917 0.89 2.85 1.37 0.933 0.487 1.71 1.153 2.33 2 0.613 0.853 0.92 2.063 0.92 3.63v0c0 1.533-0.41 2.817-1.23 3.85-0.813 1.033-1.82 1.817-3.02 2.35-1.2 0.533-2.4 0.8-3.6 0.8zM291.87 0h-11.2v-0.8l3.2-1.6v-29.4l-3.05-2.55v-0.4l7.4-2.75h0.35v18.15h0.2c1.267-1.233 2.483-2.16 3.65-2.78 1.167-0.613 2.483-0.92 3.95-0.92v0c1.933 0 3.54 0.49 4.82 1.47 1.287 0.987 1.93 2.463 1.93 4.43v0 14.75l3.15 1.6v0.8h-11.2v-0.8l3.3-1.45v-12.6c0-1.433-0.433-2.507-1.3-3.22-0.867-0.72-1.983-1.08-3.35-1.08v0c-0.833 0-1.75 0.133-2.75 0.4-1 0.267-1.8 0.683-2.4 1.25v0 15.25l3.3 1.45z" fill="#000000" fill-rule="nonzero" stroke="none" stroke-width="1" stroke-linecap="butt" stroke-linejoin="miter" stroke-miterlimit="10" stroke-dasharray="" stroke-dashoffset="0" font-family="none" font-weight="none" font-size="none" text-anchor="none" style="mix-blend-mode: normal" data-fill-palette-color="primary" opacity="1"></path><path d="M114.55 41.5v0c-2.4 0-4.623-0.4-6.67-1.2-2.053-0.8-3.83-1.927-5.33-3.38-1.5-1.447-2.673-3.153-3.52-5.12-0.853-1.967-1.28-4.117-1.28-6.45v0c0-2.567 0.473-4.933 1.42-7.1 0.953-2.167 2.263-4.06 3.93-5.68 1.667-1.613 3.583-2.863 5.75-3.75 2.167-0.88 4.483-1.32 6.95-1.32v0c1.767 0 3.267 0.1 4.5 0.3 1.233 0.2 2.343 0.483 3.33 0.85 0.98 0.367 1.937 0.783 2.87 1.25v0l0.3 8.4h-0.8l-3.6-6c-1.3-0.867-2.417-1.467-3.35-1.8-0.933-0.333-2.017-0.5-3.25-0.5v0c-2.467 0-4.667 0.567-6.6 1.7-1.933 1.133-3.45 2.7-4.55 4.7-1.1 2-1.65 4.283-1.65 6.85v0c0 3.233 0.583 6 1.75 8.3 1.167 2.3 2.727 4.06 4.68 5.28 1.947 1.213 4.137 1.82 6.57 1.82v0c0.967 0 1.927-0.06 2.88-0.18 0.947-0.113 1.903-0.337 2.87-0.67v0-8.55l-4.45-2.05v-0.8h13.2v0.8l-3.5 2.2v7.9c-1 0.867-2.2 1.607-3.6 2.22-1.4 0.62-2.867 1.103-4.4 1.45-1.533 0.353-3.017 0.53-4.45 0.53zM140.5 41.5v0c-1.6 0-2.927-0.477-3.98-1.43-1.047-0.947-1.57-2.253-1.57-3.92v0c0-1.633 0.593-3.043 1.78-4.23 1.18-1.18 3.237-2.12 6.17-2.82v0l4.75-1.1v-3.5c0-1.2-0.44-2.2-1.32-3-0.887-0.8-1.913-1.2-3.08-1.2v0c-1.233 0-2.093 0.317-2.58 0.95-0.48 0.633-0.72 1.5-0.72 2.6v0 1.6l-0.25 0.25h-2.75c-0.5 0-0.843-0.093-1.03-0.28-0.18-0.18-0.27-0.57-0.27-1.17v0c0-0.733 0.227-1.477 0.68-2.23 0.447-0.747 1.137-1.403 2.07-1.97v0c1-0.633 2.017-1.143 3.05-1.53 1.033-0.38 2.133-0.57 3.3-0.57v0c1.267 0 2.49 0.173 3.67 0.52 1.187 0.353 2.147 0.947 2.88 1.78 0.733 0.833 1.1 1.95 1.1 3.35v0 13.95c0.233 0.233 0.56 0.433 0.98 0.6 0.413 0.167 0.987 0.25 1.72 0.25v0h1.75l0.2 0.1v0.3c-0.4 0.7-1.007 1.323-1.82 1.87-0.82 0.553-1.813 0.83-2.98 0.83v0c-1.133 0-2.05-0.277-2.75-0.83-0.7-0.547-1.2-1.303-1.5-2.27v0h-0.35c-0.867 0.867-1.923 1.6-3.17 2.2-1.253 0.6-2.58 0.9-3.98 0.9zM139.5 35.05v0c0 2.067 1.217 3.1 3.65 3.1v0c0.733 0 1.44-0.077 2.12-0.23 0.687-0.147 1.48-0.403 2.38-0.77v0-7.4c-2.4 0.467-4.183 0.967-5.35 1.5-1.167 0.533-1.927 1.107-2.28 1.72-0.347 0.62-0.52 1.313-0.52 2.08zM171.05 41.5v0c-2.233 0-4.193-0.523-5.88-1.57-1.68-1.053-2.997-2.473-3.95-4.26-0.947-1.78-1.42-3.77-1.42-5.97v0c0-2.2 0.473-4.193 1.42-5.98 0.953-1.78 2.27-3.187 3.95-4.22 1.687-1.033 3.647-1.55 5.88-1.55v0c2.233 0 4.183 0.517 5.85 1.55 1.667 1.033 2.977 2.44 3.93 4.22 0.947 1.787 1.42 3.78 1.42 5.98v0c0 2.2-0.473 4.19-1.42 5.97-0.953 1.787-2.263 3.207-3.93 4.26-1.667 1.047-3.617 1.57-5.85 1.57zM171.7 39.3v0c1.267 0 2.3-0.417 3.1-1.25 0.8-0.833 1.383-1.9 1.75-3.2 0.367-1.3 0.55-2.683 0.55-4.15v0c0-1.767-0.227-3.46-0.68-5.08-0.447-1.613-1.153-2.937-2.12-3.97-0.967-1.033-2.233-1.55-3.8-1.55v0c-1.267 0-2.317 0.407-3.15 1.22-0.833 0.82-1.44 1.88-1.82 3.18-0.387 1.3-0.58 2.683-0.58 4.15v0c0 1.767 0.233 3.467 0.7 5.1 0.467 1.633 1.2 2.967 2.2 4 1 1.033 2.283 1.55 3.85 1.55zM198 41h-11.2v-0.8l3.2-1.6v-14.95l-3.05-2.5v-0.4l6.9-2.8h0.35l0.45 3.7h0.25c1.267-1.233 2.483-2.16 3.65-2.78 1.167-0.613 2.483-0.92 3.95-0.92v0c1.933 0 3.54 0.49 4.82 1.47 1.287 0.987 1.93 2.463 1.93 4.43v0 14.75l3.15 1.6v0.8h-11.2v-0.8l3.3-1.6v-12.45c0-1.433-0.433-2.507-1.3-3.22-0.867-0.72-1.983-1.08-3.35-1.08v0c-0.833 0-1.75 0.133-2.75 0.4-1 0.267-1.8 0.683-2.4 1.25v0 15.1l3.3 1.6zM227.7 41h-11.4v-0.8l3.2-1.6v-29.4l-3.05-2.55v-0.4l7.4-2.75h0.35v24.65l7.95-6.8v-0.3l-2.45-1.8v-0.8h9.75v0.8l-3.2 1.75-7.95 6.1 9.9 11.4 3.2 1.7v0.8h-7.35l-1.8-2.6-8.05-9.4v9.75l3.5 1.45zM250.3 41.5v0c-1.6 0-2.923-0.477-3.97-1.43-1.053-0.947-1.58-2.253-1.58-3.92v0c0-1.633 0.593-3.043 1.78-4.23 1.18-1.18 3.237-2.12 6.17-2.82v0l4.75-1.1v-3.5c0-1.2-0.44-2.2-1.32-3-0.887-0.8-1.913-1.2-3.08-1.2v0c-1.233 0-2.09 0.317-2.57 0.95-0.487 0.633-0.73 1.5-0.73 2.6v0 1.6l-0.25 0.25h-2.75c-0.5 0-0.84-0.093-1.02-0.28-0.187-0.18-0.28-0.57-0.28-1.17v0c0-0.733 0.227-1.477 0.68-2.23 0.447-0.747 1.137-1.403 2.07-1.97v0c1-0.633 2.017-1.143 3.05-1.53 1.033-0.38 2.133-0.57 3.3-0.57v0c1.267 0 2.493 0.173 3.68 0.52 1.18 0.353 2.137 0.947 2.87 1.78 0.733 0.833 1.1 1.95 1.1 3.35v0 13.95c0.233 0.233 0.56 0.433 0.98 0.6 0.413 0.167 0.987 0.25 1.72 0.25v0h1.75l0.2 0.1v0.3c-0.4 0.7-1.007 1.323-1.82 1.87-0.82 0.553-1.813 0.83-2.98 0.83v0c-1.133 0-2.05-0.277-2.75-0.83-0.7-0.547-1.2-1.303-1.5-2.27v0h-0.35c-0.867 0.867-1.923 1.6-3.17 2.2-1.253 0.6-2.58 0.9-3.98 0.9zM249.3 35.05v0c0 2.067 1.217 3.1 3.65 3.1v0c0.733 0 1.443-0.077 2.13-0.23 0.68-0.147 1.47-0.403 2.37-0.77v0-7.4c-2.4 0.467-4.183 0.967-5.35 1.5-1.167 0.533-1.923 1.107-2.27 1.72-0.353 0.62-0.53 1.313-0.53 2.08zM281.25 41h-11.6v-0.8l3.2-1.6v-14.9l-3.05-2.55v-0.4l6.9-2.8h0.4l0.45 4.3h0.2c0.767-1.267 1.467-2.21 2.1-2.83 0.633-0.613 1.233-1.013 1.8-1.2 0.567-0.18 1.15-0.27 1.75-0.27v0c0.3 0 0.627 0.04 0.98 0.12 0.347 0.087 0.637 0.18 0.87 0.28v0c0.4 0.167 0.75 0.367 1.05 0.6 0.3 0.233 0.45 0.5 0.45 0.8v0c0 0.3-0.067 0.6-0.2 0.9v0l-1.05 2.65h-0.35l-1.75-0.7c-0.4-0.133-0.783-0.227-1.15-0.28-0.367-0.047-0.733-0.07-1.1-0.07v0c-1.433 0-2.617 0.683-3.55 2.05v0 14.3l3.65 1.6z" fill="#000000" fill-rule="nonzero" stroke="none" stroke-width="1" stroke-linecap="butt" stroke-linejoin="miter" stroke-miterlimit="10" stroke-dasharray="" stroke-dashoffset="0" font-family="none" font-weight="none" font-size="none" text-anchor="none" style="mix-blend-mode: normal" data-fill-palette-color="primary" opacity="1"></path></g></svg></g></svg></g></svg></g></svg></g><g></g></svg></g><defs></defs></svg><rect width="395.52" height="141.9061036972216" fill="none" stroke="none" visibility="hidden"></rect></g></svg></g></svg>